<?xml version="1.0" encoding="UTF-8"?>
<svg version="1.1" xmlns="http://www.w3.org/2000/svg" width="512" height="512">
<path d="M0 0 C2.07065193 -0.00570839 4.14130072 -0.01267446 6.21194458 -0.02079773 C11.81533086 -0.03869287 17.41856022 -0.03756751 23.02196646 -0.03185534 C27.70867759 -0.02875805 32.39535883 -0.034862 37.0820657 -0.04089409 C48.14327759 -0.05492592 59.20441223 -0.05338934 70.265625 -0.04199219 C81.65710238 -0.03051373 93.04834425 -0.04458526 104.43979061 -0.07138866 C114.23884161 -0.09357757 124.03781887 -0.1001758 133.8368932 -0.09431225 C139.68118438 -0.09094896 145.52532464 -0.09331605 151.36959457 -0.11056328 C156.86744139 -0.12608101 162.36494057 -0.12202321 167.8627739 -0.10325813 C169.87343786 -0.09958555 171.88412787 -0.10264163 173.89476776 -0.11314392 C190.57478975 -0.19357711 203.46938006 1.78058526 216.03955078 13.72827148 C225.36959459 23.53559476 229.95463573 34.2352474 229.82128906 47.74780273 C229.82158112 48.53901016 229.82187317 49.33021759 229.82217407 50.145401 C229.82079308 52.73173418 229.80529059 55.31777058 229.78955078 57.90405273 C229.78581626 59.70865725 229.78297137 61.51326381 229.78097534 63.31787109 C229.77337342 68.04593598 229.75375479 72.77387616 229.73156738 77.50189209 C229.71103451 82.33514723 229.70195777 87.16842271 229.69189453 92.00170898 C229.67050538 101.46922024 229.63535159 110.93660656 229.59423828 120.40405273 C240.15423828 120.40405273 250.71423828 120.40405273 261.59423828 120.40405273 C261.59423828 118.42405273 261.59423828 116.44405273 261.59423828 114.40405273 C264.10375754 109.57805415 266.88300705 107.05076485 271.59423828 104.40405273 C275.02246094 103.88647461 275.02246094 103.88647461 278.75830078 103.87280273 C279.76828629 103.86706238 279.76828629 103.86706238 280.79867554 103.86120605 C282.21898906 103.85849698 283.63935334 103.86578779 285.05957031 103.88256836 C287.19340498 103.90379574 289.32379533 103.88284363 291.45751953 103.85717773 C306.76663551 103.82454282 318.23820006 108.29883777 329.40673828 118.84155273 C339.47563803 129.52498627 342.20484752 142.00222375 342.10217285 156.37036133 C342.10679228 157.74160611 342.11315213 159.11284592 342.12108183 160.48407555 C342.13765567 164.21925586 342.12958393 167.95402315 342.11713696 171.68920422 C342.10803935 175.7301877 342.12207941 179.77110307 342.13305664 183.81207275 C342.15079645 191.71534225 342.14702219 199.61845937 342.13540608 207.52173471 C342.12635411 213.94775036 342.12515537 220.37372345 342.12950134 226.79974365 C342.13011427 227.71607303 342.13072721 228.63240241 342.13135871 229.57649934 C342.13263768 231.43829617 342.13393453 233.30009299 342.13524908 235.16188979 C342.14664158 252.59945491 342.13356207 270.03693577 342.11204761 287.47448707 C342.09417784 302.42045218 342.09728232 317.36629299 342.11572266 332.31225586 C342.13715289 349.68955594 342.14554307 367.06678226 342.1332736 384.4440937 C342.13199947 386.29884973 342.13074199 388.15360577 342.12950134 390.00836182 C342.12888424 390.92081803 342.12826714 391.83327424 342.12763134 392.77338064 C342.12418489 399.18794811 342.12999153 405.60246861 342.13941956 412.01702881 C342.15066487 419.83960053 342.14754643 427.6620118 342.12629658 435.48456526 C342.11582011 439.4719497 342.11160579 443.45906711 342.12489319 447.44644928 C342.13689413 451.10322012 342.13012948 454.75947876 342.10898298 458.41620374 C342.102464 460.35131929 342.11538385 462.28647096 342.1292119 464.22154808 C342.00007087 478.74363968 337.09443508 489.5776319 327.28173828 500.15405273 C315.17758366 511.6097705 301.78886454 512.85174014 285.92019653 512.79173279 C284.12170196 512.79590937 282.32321001 512.80138866 280.52472293 512.8080526 C275.5993448 512.82248338 270.67413433 512.81826986 265.74874711 512.81088579 C260.43029101 512.80615057 255.111871 512.81866711 249.79342651 512.8289032 C239.38063013 512.84608959 228.9678941 512.84693153 218.55508722 512.84169029 C210.09050964 512.83764706 201.62594987 512.83909399 193.16137314 512.84443855 C191.95613521 512.84518697 190.75089729 512.8459354 189.509137 512.8467065 C187.06060911 512.84823799 184.61208122 512.84977634 182.16355334 512.85132147 C159.20741229 512.86504594 136.25130532 512.85960919 113.29516505 512.84813625 C92.30059574 512.83820401 71.30611457 512.85114452 50.31155886 512.87507045 C28.7460185 512.89946162 7.18051919 512.90906926 -14.38503468 512.90241772 C-26.48912629 512.89892554 -38.59315012 512.90115755 -50.69723129 512.91866875 C-61.00116217 512.93339092 -71.30497753 512.93402588 -81.60890613 512.91659784 C-86.8640761 512.90808567 -92.11903971 512.90594375 -97.37419891 512.92124939 C-102.18936333 512.93509972 -107.00414468 512.93032871 -111.81928696 512.91101015 C-113.55673941 512.90725092 -115.29422258 512.91016987 -117.03164767 512.9206218 C-133.61215065 513.01323593 -145.78248897 509.57135064 -158.15576172 498.09155273 C-168.44041168 487.22475277 -170.86301499 475.20031852 -170.79344177 460.67825317 C-170.7976215 459.30873679 -170.8031025 457.93922386 -170.80976158 456.56971729 C-170.82415132 452.83008575 -170.8199919 449.09067583 -170.81259477 445.3510325 C-170.80784927 441.30865709 -170.82038515 437.26632867 -170.83061218 433.22396851 C-170.84777862 425.3137675 -170.84864466 417.40364601 -170.84339928 409.49343123 C-170.83935226 403.0616514 -170.84080746 396.62989501 -170.84614754 390.1981163 C-170.84689596 389.28151594 -170.84764438 388.36491559 -170.84841548 387.42053946 C-170.84994701 385.55825957 -170.85148536 383.69597969 -170.85303045 381.83369981 C-170.86674774 364.38280791 -170.86132327 346.93196089 -170.84984524 329.48107003 C-170.83991411 313.53038063 -170.85285283 297.57980725 -170.87677943 281.62913574 C-170.90118588 265.23452924 -170.91077447 248.83997674 -170.9041267 232.44535244 C-170.90063787 223.24760303 -170.90284437 214.04994282 -170.92037773 204.85220718 C-170.93511906 197.02227534 -170.93570997 189.19249553 -170.91830682 181.36256661 C-170.90981023 177.37114007 -170.90761418 173.37998488 -170.92295837 169.38857269 C-170.93685588 165.72803016 -170.93197821 162.06799013 -170.91271914 158.40747629 C-170.90721289 156.47027024 -170.92118835 154.53303827 -170.93607324 152.59588158 C-170.81465011 138.06843103 -165.9092775 127.23405088 -156.09326172 116.65405273 C-145.14895332 106.29604657 -132.87649853 103.86975072 -118.30908203 103.95800781 C-116.1450509 103.96659524 -113.98360121 103.93753853 -111.81982422 103.90600586 C-110.42659583 103.90439513 -109.03336283 103.90496892 -107.64013672 103.90795898 C-106.39458008 103.90610596 -105.14902344 103.90425293 -103.86572266 103.90234375 C-98.48018329 104.68326976 -95.43929794 107.15292994 -92.03076172 111.27905273 C-90.40576172 114.40405273 -90.40576172 114.40405273 -90.40576172 120.40405273 C-79.84576172 120.40405273 -69.28576172 120.40405273 -58.40576172 120.40405273 C-58.43718262 116.77228027 -58.43718262 116.77228027 -58.46923828 113.06713867 C-58.53579528 105.02862509 -58.57981111 96.9900987 -58.61301041 88.95138168 C-58.63380214 84.08194032 -58.66196432 79.21278351 -58.70751953 74.34350586 C-58.75127962 69.6361439 -58.77496195 64.92905403 -58.78527069 60.22150421 C-58.79260831 58.43391899 -58.80693562 56.64634709 -58.82868195 54.85887909 C-59.02729698 37.84222183 -55.98961758 25.47630421 -44.09326172 12.65405273 C-31.11918275 0.37501371 -16.85790565 -0.04196125 0 0 Z " fill="#508DF0" transform="translate(170.40576171875,-0.404052734375)"/>
<path d="M0 0 C2.07065193 -0.00570839 4.14130072 -0.01267446 6.21194458 -0.02079773 C11.81533086 -0.03869287 17.41856022 -0.03756751 23.02196646 -0.03185534 C27.70867759 -0.02875805 32.39535883 -0.034862 37.0820657 -0.04089409 C48.14327759 -0.05492592 59.20441223 -0.05338934 70.265625 -0.04199219 C81.65710238 -0.03051373 93.04834425 -0.04458526 104.43979061 -0.07138866 C114.23884161 -0.09357757 124.03781887 -0.1001758 133.8368932 -0.09431225 C139.68118438 -0.09094896 145.52532464 -0.09331605 151.36959457 -0.11056328 C156.86744139 -0.12608101 162.36494057 -0.12202321 167.8627739 -0.10325813 C169.87343786 -0.09958555 171.88412787 -0.10264163 173.89476776 -0.11314392 C190.57478975 -0.19357711 203.46938006 1.78058526 216.03955078 13.72827148 C227.75462785 26.04263467 229.89765063 38.08741312 229.88476562 54.578125 C229.89075772 56.111601 229.89756482 57.645074 229.90512085 59.17854309 C229.92272433 63.3277208 229.92747399 67.4768159 229.92875242 71.62602735 C229.93017842 74.22527682 229.93445663 76.82450561 229.93974686 79.42374992 C229.95823238 88.51200558 229.96641981 97.60020273 229.96484375 106.68847656 C229.96364456 115.12607726 229.98470699 123.56342125 230.01633108 132.00095707 C230.04259648 139.27094383 230.05320668 146.54084731 230.05193293 153.81088108 C230.05142606 158.14123537 230.05695464 162.47136163 230.07828903 166.80166817 C230.09784395 170.88203915 230.09767992 174.96196872 230.08325577 179.04235649 C230.08118735 180.52768484 230.08574894 182.01304208 230.09797668 183.49832153 C230.22637672 200.19614645 226.90854939 214.62998128 215.28173828 227.21655273 C201.88386392 239.66168937 186.6869643 240.99983437 169.32861328 240.92163086 C167.29707337 240.92705939 165.26553739 240.93418613 163.23400879 240.94287109 C157.74638614 240.96102033 152.25906617 240.95407167 146.7714386 240.94135475 C141.01151756 240.93118343 135.25162135 240.94063187 129.49169922 240.94689941 C119.8214048 240.95416381 110.15123283 240.94461982 100.48095703 240.92553711 C89.3223222 240.90377079 78.16397977 240.910823 67.00535202 240.93284273 C57.40157962 240.95103115 47.79789494 240.95353823 38.19411087 240.94308805 C32.46834779 240.93687205 26.74272188 240.93596526 21.01696777 240.94923401 C15.63234358 240.96084202 10.24809411 240.95267654 4.86351013 240.92965698 C2.89477661 240.92439628 0.92601122 240.92583809 -1.04270935 240.93470764 C-18.60555369 241.00649963 -32.18234643 237.94171608 -45.65576172 225.84155273 C-57.07082291 213.7688337 -58.70846466 198.68362723 -58.69628906 182.88525391 C-58.70228243 181.32705872 -58.70908983 179.7688665 -58.71664429 178.2106781 C-58.7342284 173.99977975 -58.73899642 169.78896282 -58.74027586 165.5780313 C-58.74170224 162.94144529 -58.74598099 160.30487965 -58.75127029 157.66829872 C-58.76974488 148.45382001 -58.77794406 139.23939896 -58.77636719 130.02490234 C-58.77516622 121.46168672 -58.79626634 112.8987233 -58.82785451 104.33557147 C-58.85407962 96.96115386 -58.86473189 89.58681832 -58.86345637 82.21235448 C-58.8629486 77.81783714 -58.86852869 73.42354423 -58.88981247 69.02907372 C-58.90930062 64.89288764 -58.90924786 60.75713769 -58.89477921 56.62093544 C-58.8927031 55.11177044 -58.89731969 53.60257736 -58.90950012 52.09346008 C-59.03005642 36.10887848 -55.0296035 24.44157206 -44.09326172 12.65405273 C-31.11918275 0.37501371 -16.85790565 -0.04196125 0 0 Z " fill="#FE4E42" transform="translate(170.40576171875,-0.404052734375)"/>
<path d="M0 0 C2.16403113 0.00858743 4.32548082 -0.02046928 6.48925781 -0.05200195 C7.8824862 -0.05361268 9.2757192 -0.05303889 10.66894531 -0.05004883 C11.91450195 -0.05190186 13.16005859 -0.05375488 14.44335938 -0.05566406 C19.71495095 0.70873903 22.76631715 3.18935721 26.27832031 7.07104492 C28.98084698 12.68398493 28.76454675 17.91021154 26.77832031 23.75854492 C23.89976316 27.88447685 20.76969078 30.82392143 15.90332031 32.44604492 C14.05501158 32.54925178 12.20360941 32.60096016 10.35253906 32.62182617 C9.26134766 32.64567383 8.17015625 32.66952148 7.04589844 32.6940918 C4.75441739 32.73683848 2.46269407 32.76820905 0.17089844 32.7878418 C-8.20253141 32.97094501 -8.20253141 32.97094501 -15.09667969 37.44604492 C-20.24786423 43.12950079 -19.6557303 48.92155956 -19.59788513 56.31359863 C-19.60341953 57.62531209 -19.60895393 58.93702556 -19.61465603 60.28848791 C-19.62940671 63.92340242 -19.61923206 67.55788354 -19.60491931 71.19278407 C-19.59381109 75.11514204 -19.60575162 79.03743915 -19.61476135 82.95979309 C-19.62869687 90.64129835 -19.62113537 98.32263925 -19.60608577 106.00413668 C-19.58922831 114.94875388 -19.5924356 123.8933301 -19.59617985 132.83795828 C-19.602059 148.79703471 -19.5878847 164.75603225 -19.56323242 180.71508789 C-19.53931149 196.20242266 -19.53222809 211.68965203 -19.54272461 227.17700195 C-19.55413299 244.04000354 -19.55606487 260.90295636 -19.54162651 277.76595736 C-19.54010067 279.5639677 -19.53858031 281.36197805 -19.53706551 283.1599884 C-19.53630769 284.0446536 -19.53554988 284.9293188 -19.5347691 285.84079203 C-19.53002565 292.07625702 -19.53187814 298.31170025 -19.53613091 304.54716492 C-19.54105674 312.14569039 -19.5350769 319.74411618 -19.51523661 327.34261882 C-19.50536251 331.21981189 -19.50026072 335.09685316 -19.50812912 338.97405434 C-19.51648147 343.17567732 -19.50161035 347.37689543 -19.48435974 351.57849121 C-19.49036979 352.80591585 -19.49637983 354.03334048 -19.502572 355.2979598 C-19.48235373 363.30383597 -19.48235373 363.30383597 -16.09667969 370.44604492 C-11.24016286 374.82875523 -8.70326679 375.5712697 -2.21434402 375.580266 C-1.49458673 375.58261823 -0.77482943 375.58497046 -0.0332613 375.58739397 C2.40319467 375.59410497 4.83959756 375.59362512 7.27606201 375.59321594 C9.03067775 375.59651326 10.78529273 375.60023855 12.53990674 375.60435742 C17.38087594 375.61440055 22.22183275 375.61809792 27.0628109 375.62074673 C32.27630519 375.62464293 37.48978959 375.63422171 42.70327759 375.64295959 C55.3032477 375.66274315 67.90321864 375.6727925 80.50320041 375.68168738 C86.43179367 375.68606709 92.36038603 375.69143471 98.28897858 375.69667625 C117.98838999 375.71369024 137.68780084 375.7281855 157.38721848 375.735425 C162.50196076 375.737335 167.61670304 375.73925531 172.73144531 375.74121094 C174.63839085 375.74193655 174.63839085 375.74193655 176.58386055 375.74267682 C197.18852759 375.75098115 217.79313665 375.77632411 238.39777836 375.80879162 C259.53588379 375.84182909 280.67395972 375.85987075 301.81209111 375.86306924 C313.68696642 375.86523738 325.56175716 375.87403047 337.43660736 375.89953041 C347.54765625 375.92119218 357.65860005 375.92931016 367.7696695 375.91956363 C372.93088799 375.91500582 378.09188946 375.91699093 383.25307846 375.93632507 C387.97571631 375.95386402 392.69797734 375.95303482 397.42061868 375.93742778 C399.13129145 375.93503755 400.84198968 375.93944802 402.55262336 375.95125643 C404.87474994 375.96629611 407.19552759 375.95675926 409.51762009 375.94102955 C410.8083445 375.94200636 412.09906892 375.94298317 413.4289062 375.94398957 C418.34724019 375.23910581 421.46576959 373.0818785 424.71582031 369.38354492 C426.84543427 365.90891162 427.03020953 363.05978645 427.03754139 359.08048534 C427.04422816 357.39982095 427.04422816 357.39982095 427.05105001 355.68520373 C427.05086564 354.44904057 427.05068128 353.21287741 427.05049133 351.93925476 C427.05600637 349.97552948 427.05600637 349.97552948 427.06163281 347.97213298 C427.0716575 344.33058799 427.07537035 340.68905948 427.07802212 337.04750264 C427.08192371 333.12306143 427.09150206 329.1986333 427.10023499 325.27420044 C427.12000209 315.79369777 427.13006529 306.31319403 427.13896278 296.8326759 C427.14334471 292.36998994 427.14871172 287.90730516 427.15395164 283.44462013 C427.17096312 268.61338771 427.18545833 253.78215602 427.19270039 238.95091534 C427.19461033 235.10171699 427.19653065 231.25251864 427.19848633 227.40332031 C427.19897007 226.44660334 427.19945381 225.48988636 427.19995221 224.50417797 C427.20825641 208.99842147 427.23360025 193.49274203 427.26606701 177.9870192 C427.29911536 162.07405907 427.31714708 146.16113813 427.32034463 130.24814349 C427.32251164 121.31092063 427.33128833 112.37381017 427.3568058 103.43662071 C427.37848234 95.82704657 427.38657823 88.21761213 427.37683902 80.60801061 C427.37228561 76.72470124 427.37424059 72.84168031 427.39360046 68.95841026 C427.41440041 64.74999788 427.40427509 60.54222883 427.3910675 56.33378601 C427.40203675 55.10431502 427.413006 53.87484402 427.42430764 52.60811633 C427.37607824 46.26663139 427.25092504 42.22744294 422.90332031 37.44604492 C419.07140188 34.07860145 415.8454519 33.33271855 410.82519531 33.23510742 C409.82875 33.20674805 408.83230469 33.17838867 407.80566406 33.14916992 C405.71989727 33.09747806 403.63393536 33.05309349 401.54785156 33.01635742 C394.91474036 32.81147368 389.39073047 32.44865815 384.16113281 27.94604492 C379.82744563 22.20764535 379.12297668 17.49111916 379.90332031 10.44604492 C382.27417934 5.5219531 385.19354166 3.11424571 389.90332031 0.44604492 C393.33154297 -0.0715332 393.33154297 -0.0715332 397.06738281 -0.08520508 C398.07736832 -0.09094543 398.07736832 -0.09094543 399.10775757 -0.09680176 C400.52807109 -0.09951083 401.94843537 -0.09222002 403.36865234 -0.07543945 C405.50248701 -0.05421207 407.63287736 -0.07516418 409.76660156 -0.10083008 C425.07571754 -0.13346499 436.54728209 4.34082996 447.71582031 14.88354492 C457.78472006 25.56697846 460.51392955 38.04421594 460.41125488 52.41235352 C460.41587431 53.78359829 460.42223417 55.1548381 460.43016386 56.52606773 C460.4467377 60.26124805 460.43866596 63.99601534 460.42621899 67.7311964 C460.41712138 71.77217989 460.43116144 75.81309525 460.44213867 79.85406494 C460.45987848 87.75733444 460.45610422 95.66045156 460.44448811 103.5637269 C460.43543614 109.98974255 460.4342374 116.41571564 460.43858337 122.84173584 C460.43919631 123.75806522 460.43980924 124.6743946 460.44044074 125.61849153 C460.44171971 127.48028836 460.44301656 129.34208518 460.44433111 131.20388198 C460.45572361 148.6414471 460.4426441 166.07892796 460.42112964 183.51647925 C460.40325987 198.46244436 460.40636436 213.40828518 460.42480469 228.35424805 C460.44623492 245.73154812 460.4546251 263.10877444 460.44235563 280.48608589 C460.4410815 282.34084192 460.43982402 284.19559796 460.43858337 286.050354 C460.43796627 286.96281021 460.43734917 287.87526643 460.43671337 288.81537282 C460.43326692 295.2299403 460.43907357 301.6444608 460.44850159 308.059021 C460.4597469 315.88159272 460.45662846 323.70400399 460.43537861 331.52655745 C460.42490214 335.51394189 460.42068782 339.5010593 460.43397522 343.48844147 C460.44597616 347.14521231 460.43921152 350.80147094 460.41806501 354.45819592 C460.41154603 356.39331147 460.42446588 358.32846315 460.43829393 360.26354027 C460.30915291 374.78563187 455.40351711 385.61962408 445.59082031 396.19604492 C433.48666569 407.65176269 420.09794657 408.89373233 404.22927856 408.83372498 C402.43078399 408.83790155 400.63229205 408.84338085 398.83380497 408.85004479 C393.90842683 408.86447556 388.98321636 408.86026205 384.05782914 408.85287797 C378.73937304 408.84814276 373.42095303 408.8606593 368.10250854 408.87089539 C357.68971217 408.88808177 347.27697613 408.88892371 336.86416925 408.88368248 C328.39959167 408.87963924 319.9350319 408.88108617 311.47045517 408.88643074 C310.26521724 408.88717916 309.05997932 408.88792758 307.81821903 408.88869869 C305.36969114 408.89023018 302.92116325 408.89176853 300.47263537 408.89331365 C277.51649432 408.90703813 254.56038735 408.90160137 231.60424708 408.89012844 C210.60967777 408.8801962 189.6151966 408.8931367 168.62064089 408.91706263 C147.05510053 408.94145381 125.48960122 408.95106144 103.92404735 408.94440991 C91.81995574 408.94091773 79.71593191 408.94314973 67.61185074 408.96066093 C57.30791987 408.97538311 47.0041045 408.97601807 36.7001759 408.95859002 C31.44500593 408.95007786 26.19004232 408.94793594 20.93488312 408.96324158 C16.1197187 408.9770919 11.30493735 408.9723209 6.48979507 408.95300234 C4.75234262 408.94924311 3.01485945 408.95216206 1.27743436 408.96261399 C-15.30306861 409.05522812 -27.47340694 405.61334283 -39.84667969 394.13354492 C-50.13132965 383.26674496 -52.55393295 371.24231071 -52.48435974 356.72024536 C-52.48853947 355.35072897 -52.49402047 353.98121605 -52.50067955 352.61170948 C-52.51506929 348.87207794 -52.51090986 345.13266801 -52.50351274 341.39302468 C-52.49876724 337.35064927 -52.51130312 333.30832086 -52.52153015 329.26596069 C-52.53869658 321.35575969 -52.53956263 313.4456382 -52.53431725 305.53542341 C-52.53027022 299.10364359 -52.53172542 292.6718872 -52.53706551 286.24010849 C-52.53781393 285.32350813 -52.53856235 284.40690777 -52.53933345 283.46253165 C-52.54086498 281.60025176 -52.54240333 279.73797187 -52.54394842 277.875692 C-52.55766571 260.4248001 -52.55224123 242.97395308 -52.54076321 225.52306221 C-52.53083208 209.57237281 -52.5437708 193.62179944 -52.5676974 177.67112793 C-52.59210385 161.27652143 -52.60169244 144.88196892 -52.59504467 128.48734462 C-52.59155583 119.28959521 -52.59376234 110.09193501 -52.6112957 100.89419937 C-52.62603703 93.06426753 -52.62662794 85.23448771 -52.60922479 77.40455879 C-52.6007282 73.41313226 -52.59853215 69.42197707 -52.61387634 65.43056488 C-52.62777385 61.77002234 -52.62289618 58.10998232 -52.60363711 54.44946848 C-52.59813086 52.51226243 -52.61210632 50.57503046 -52.62699121 48.63787377 C-52.50556807 34.11042322 -47.60019547 23.27604307 -37.78417969 12.69604492 C-26.83987129 2.33803876 -14.5674165 -0.0882571 0 0 Z " fill="#000000" transform="translate(52.0966796875,103.553955078125)"/>
<path d="M0 0 C2.07065193 -0.00570839 4.14130072 -0.01267446 6.21194458 -0.02079773 C11.81533086 -0.03869287 17.41856022 -0.03756751 23.02196646 -0.03185534 C27.70867759 -0.02875805 32.39535883 -0.034862 37.0820657 -0.04089409 C48.14327759 -0.05492592 59.20441223 -0.05338934 70.265625 -0.04199219 C81.65710238 -0.03051373 93.04834425 -0.04458526 104.43979061 -0.07138866 C114.23884161 -0.09357757 124.03781887 -0.1001758 133.8368932 -0.09431225 C139.68118438 -0.09094896 145.52532464 -0.09331605 151.36959457 -0.11056328 C156.86744139 -0.12608101 162.36494057 -0.12202321 167.8627739 -0.10325813 C169.87343786 -0.09958555 171.88412787 -0.10264163 173.89476776 -0.11314392 C190.57478975 -0.19357711 203.46938006 1.78058526 216.03955078 13.72827148 C227.75462785 26.04263467 229.89765063 38.08741312 229.88476562 54.578125 C229.89075772 56.111601 229.89756482 57.645074 229.90512085 59.17854309 C229.92272433 63.3277208 229.92747399 67.4768159 229.92875242 71.62602735 C229.93017842 74.22527682 229.93445663 76.82450561 229.93974686 79.42374992 C229.95823238 88.51200558 229.96641981 97.60020273 229.96484375 106.68847656 C229.96364456 115.12607726 229.98470699 123.56342125 230.01633108 132.00095707 C230.04259648 139.27094383 230.05320668 146.54084731 230.05193293 153.81088108 C230.05142606 158.14123537 230.05695464 162.47136163 230.07828903 166.80166817 C230.09784395 170.88203915 230.09767992 174.96196872 230.08325577 179.04235649 C230.08118735 180.52768484 230.08574894 182.01304208 230.09797668 183.49832153 C230.22637672 200.19614645 226.90854939 214.62998128 215.28173828 227.21655273 C201.88386392 239.66168937 186.6869643 240.99983437 169.32861328 240.92163086 C167.29707337 240.92705939 165.26553739 240.93418613 163.23400879 240.94287109 C157.74638614 240.96102033 152.25906617 240.95407167 146.7714386 240.94135475 C141.01151756 240.93118343 135.25162135 240.94063187 129.49169922 240.94689941 C119.8214048 240.95416381 110.15123283 240.94461982 100.48095703 240.92553711 C89.3223222 240.90377079 78.16397977 240.910823 67.00535202 240.93284273 C57.40157962 240.95103115 47.79789494 240.95353823 38.19411087 240.94308805 C32.46834779 240.93687205 26.74272188 240.93596526 21.01696777 240.94923401 C15.63234358 240.96084202 10.24809411 240.95267654 4.86351013 240.92965698 C2.89477661 240.92439628 0.92601122 240.92583809 -1.04270935 240.93470764 C-18.60555369 241.00649963 -32.18234643 237.94171608 -45.65576172 225.84155273 C-57.07082291 213.7688337 -58.70846466 198.68362723 -58.69628906 182.88525391 C-58.70228243 181.32705872 -58.70908983 179.7688665 -58.71664429 178.2106781 C-58.7342284 173.99977975 -58.73899642 169.78896282 -58.74027586 165.5780313 C-58.74170224 162.94144529 -58.74598099 160.30487965 -58.75127029 157.66829872 C-58.76974488 148.45382001 -58.77794406 139.23939896 -58.77636719 130.02490234 C-58.77516622 121.46168672 -58.79626634 112.8987233 -58.82785451 104.33557147 C-58.85407962 96.96115386 -58.86473189 89.58681832 -58.86345637 82.21235448 C-58.8629486 77.81783714 -58.86852869 73.42354423 -58.88981247 69.02907372 C-58.90930062 64.89288764 -58.90924786 60.75713769 -58.89477921 56.62093544 C-58.8927031 55.11177044 -58.89731969 53.60257736 -58.90950012 52.09346008 C-59.03005642 36.10887848 -55.0296035 24.44157206 -44.09326172 12.65405273 C-31.11918275 0.37501371 -16.85790565 -0.04196125 0 0 Z M-23.71826172 39.02905273 C-26.38809678 42.78659838 -26.53397243 44.81305571 -26.54620361 49.41265869 C-26.55191376 50.69410263 -26.5576239 51.97554657 -26.56350708 53.29582214 C-26.56475251 54.72415151 -26.56587759 56.15248099 -26.56689453 57.58081055 C-26.57152175 59.07874169 -26.57654627 60.57667164 -26.5819397 62.07460022 C-26.59507683 66.15120047 -26.60151145 70.22778424 -26.60595036 74.30440235 C-26.60887955 76.85094488 -26.61298411 79.39748288 -26.61745453 81.94402313 C-26.63113421 89.91035321 -26.64079801 97.87667299 -26.64465642 105.843014 C-26.64913558 115.04084114 -26.66667488 124.23851955 -26.69565701 133.43630147 C-26.7172755 140.54381085 -26.72736082 147.65127839 -26.72869754 154.7588203 C-26.72974564 159.00454721 -26.73565425 163.25013441 -26.75351715 167.49582672 C-26.77000029 171.49148293 -26.77215223 175.48689446 -26.76337814 179.48257256 C-26.76260784 180.94748782 -26.76694967 182.41241625 -26.7768364 183.87729836 C-26.78956206 185.88066291 -26.78188514 187.88412582 -26.77325439 189.88751221 C-26.77472095 191.00765842 -26.77618752 192.12780464 -26.77769852 193.28189468 C-26.19072991 198.20909941 -24.12596638 202.39872938 -20.42028809 205.73152161 C-13.54713738 210.4947271 -4.18446764 209.22681417 3.82666016 209.16455078 C5.79514025 209.17104863 7.76361329 209.18011297 9.73207092 209.19154358 C15.06485583 209.21458311 20.39692316 209.19992978 25.72968483 209.17707419 C31.31666683 209.15812961 36.90360154 209.16932105 42.49060059 209.17597961 C51.87210458 209.1823162 61.25332181 209.16407083 70.63476562 209.13134766 C81.47309526 209.09385481 92.31088167 209.09563317 103.14924002 209.11838883 C113.5856099 209.13935439 124.02177947 209.13205439 134.45814514 209.11207008 C138.89500161 209.10409409 143.33168818 209.10606364 147.76853943 209.11609459 C152.99561463 209.12666298 158.22205847 209.11246895 163.44903374 209.07935143 C165.36460593 209.07115923 167.28023613 209.07141052 169.19580269 209.08082962 C171.81633577 209.09229768 174.43491955 209.07281453 177.05529785 209.04570007 C177.80861877 209.05617156 178.56193969 209.06664305 179.33808851 209.07743186 C185.12972023 208.96622263 189.08934759 207.01207784 193.59423828 203.40405273 C198.99981085 197.05641574 198.16071697 189.75274744 198.11181641 181.76733398 C198.11724206 180.28013424 198.12436721 178.79293987 198.13305664 177.30575562 C198.15124045 173.28090018 198.14424313 169.25645641 198.1315403 165.23159409 C198.12138689 161.01213248 198.13081247 156.79270524 198.13708496 152.57324219 C198.14435457 145.48846127 198.13479175 138.40384734 198.11572266 131.3190918 C198.09395516 123.13750863 198.10100702 114.95632422 198.12302828 106.77475071 C198.14120191 99.74012886 198.14373103 92.70562679 198.1332736 85.67098904 C198.12704943 81.47392176 198.12617327 77.27704169 198.13941956 73.07998657 C198.15100614 69.13339267 198.14290166 65.18731103 198.11984253 61.24077225 C198.11457034 59.79563877 198.11604368 58.35046191 198.12489319 56.90534592 C198.2610712 46.42781195 198.2610712 46.42781195 193.59423828 37.40405273 C188.46387529 32.64908216 184.39831714 32.25526272 177.64311218 32.25688171 C176.82398828 32.25320503 176.00486437 32.24952834 175.16091853 32.24574023 C172.40650776 32.23469618 169.65213469 32.23085835 166.89770508 32.22705078 C164.92672607 32.22078675 162.95574825 32.21414001 160.98477173 32.20713806 C155.62315137 32.18972457 150.26153992 32.17917566 144.89989829 32.17093253 C141.55148205 32.16578382 138.20306859 32.15970808 134.85465431 32.1534214 C124.38203429 32.13436959 113.90942133 32.12013761 103.43678731 32.11180943 C91.34053641 32.10203167 79.24446824 32.07569795 67.14828175 32.03530854 C57.80298031 32.005173 48.45773133 31.99034305 39.11238223 31.98702842 C33.52860685 31.98467531 27.94502668 31.97568065 22.36130333 31.95056725 C17.10900492 31.92732595 11.85703082 31.92303746 6.60469437 31.93332863 C4.67697001 31.93382503 2.74922991 31.92747386 0.82155418 31.91377258 C-1.81058238 31.89611089 -4.44154779 31.90313129 -7.07368469 31.91630554 C-7.83624189 31.9053363 -8.59879909 31.89436705 -9.38446409 31.8830654 C-15.87428381 31.96147127 -19.5050075 34.24643984 -23.71826172 39.02905273 Z " fill="#000000" transform="translate(170.40576171875,-0.404052734375)"/>
<path d="M0 0 C3.90870255 1.34031321 7.50989504 3.18173604 11.1796875 5.0703125 C12.25588348 5.60584747 13.33207947 6.14138245 14.44088745 6.69314575 C16.75983082 7.84827919 19.07512854 9.01075477 21.38708496 10.17980957 C25.02803826 12.01991437 28.68797296 13.81978471 32.35253906 15.61230469 C38.03617087 18.39471165 43.70928955 21.19744134 49.37465286 24.01685715 C52.60183137 25.62269688 55.8309213 27.22438245 59.06494141 28.81640625 C62.27538309 30.39688808 65.48074119 31.98725866 68.68276596 33.58472061 C70.45363197 34.46524735 72.22932845 35.33603841 74.00515747 36.20651245 C89.03466638 43.74109808 89.03466638 43.74109808 92 51 C92.47760375 56.82676575 92.05481579 60.84499835 89 66 C82.15273511 72.80097748 72.33176324 76.60467878 63.8046875 80.828125 C62.12626411 81.66614256 60.44813781 82.50475537 58.77029419 83.34393311 C55.26777193 85.0936369 51.76264516 86.83796638 48.25537109 88.578125 C43.76802428 90.80476766 39.28604916 93.04197332 34.80579948 95.28285599 C31.34667992 97.0121435 27.88548904 98.73724925 24.4235878 100.46096039 C22.77015925 101.2845019 21.11720683 102.10900007 19.46474838 102.93448639 C17.1553981 104.08698553 14.84348558 105.2341716 12.53076172 106.37988281 C11.85424561 106.71859406 11.17772949 107.0573053 10.48071289 107.40628052 C4.13388764 110.53714252 -1.85641307 113.15726108 -9 112 C-13.95520521 109.42710499 -17.49116963 106.01766074 -20 101 C-20.11416196 98.19434989 -20.16785419 95.41295892 -20.17700195 92.60644531 C-20.18357315 91.73796967 -20.19014435 90.86949402 -20.19691467 89.97470093 C-20.21667029 87.09250812 -20.22831587 84.2103675 -20.23828125 81.328125 C-20.24439454 79.85271366 -20.24439454 79.85271366 -20.25063133 78.34749603 C-20.27150265 73.14052031 -20.28579925 67.93357102 -20.29516602 62.7265625 C-20.30622707 57.34845234 -20.34062055 51.97075632 -20.38033772 46.59279251 C-20.40648759 42.4577762 -20.41485646 38.32285875 -20.41844749 34.18776703 C-20.42331839 32.20544389 -20.43494665 30.22312531 -20.45348549 28.24088287 C-20.47784007 25.46396636 -20.47691853 22.68812349 -20.4699707 19.91113281 C-20.48278076 19.09428009 -20.49559082 18.27742737 -20.50878906 17.43582153 C-20.46071158 12.15552617 -19.46874922 9.20467975 -16 5 C-10.78225798 0.40341774 -6.98349627 -0.91831212 0 0 Z " fill="#010000" transform="translate(220,64)"/>
<path d="M0 0 C4.94616497 1.93545586 8.63532278 6.27064555 11 11 C11.11786691 12.48012824 11.17692938 13.96516466 11.20532227 15.44970703 C11.2352401 16.83091232 11.2352401 16.83091232 11.26576233 18.24002075 C11.28247482 19.23589203 11.29918732 20.23176331 11.31640625 21.2578125 C11.33718735 22.27600067 11.35796844 23.29418884 11.37937927 24.3432312 C11.44489466 27.60375055 11.50376902 30.86435206 11.5625 34.125 C11.60568332 36.33203983 11.64929755 38.53907128 11.69335938 40.74609375 C11.80057805 46.16397501 11.90234074 51.58193846 12 57 C12.48210937 56.50628906 12.96421875 56.01257813 13.4609375 55.50390625 C14.40839844 54.54291016 14.40839844 54.54291016 15.375 53.5625 C16.00148438 52.92441406 16.62796875 52.28632813 17.2734375 51.62890625 C21.02997401 48.08484353 25.07803422 48.66950037 30.015625 48.72265625 C35.41439506 49.22437441 37.87282559 51.75417566 41.375 55.625 C43.53761618 60.11658745 43.97824978 64.10155808 43 69 C40.02710071 75.05611371 36.08876593 79.33642561 31.3125 84.05078125 C30.20322144 85.16080757 30.20322144 85.16080757 29.0715332 86.29325867 C27.5151525 87.8473094 25.95510344 89.39769404 24.39160156 90.94458008 C21.99885093 93.31363769 19.61980204 95.69584002 17.2421875 98.08007812 C15.72475034 99.59194118 14.20654732 101.10303602 12.6875 102.61328125 C11.97698486 103.32470779 11.26646973 104.03613434 10.53442383 104.76911926 C9.86693115 105.42707993 9.19943848 106.08504059 8.51171875 106.76293945 C7.92865967 107.34139114 7.34560059 107.91984283 6.74487305 108.51582336 C3.03083647 111.67495653 -0.04671605 112.31357145 -4.875 112.375 C-5.88304687 112.40335937 -6.89109375 112.43171875 -7.9296875 112.4609375 C-14.9715966 111.40375522 -19.87572813 105.43150426 -24.69921875 100.6015625 C-25.77451591 99.53269302 -25.77451591 99.53269302 -26.87153625 98.44223022 C-28.37921843 96.94026913 -29.88431646 95.43571006 -31.38696289 93.92871094 C-33.68184591 91.63066189 -35.98974953 89.3462743 -38.29882812 87.0625 C-39.7664354 85.59716538 -41.23325921 84.13104556 -42.69921875 82.6640625 C-43.38674728 81.98574371 -44.07427582 81.30742493 -44.78263855 80.60855103 C-49.61236368 75.73190074 -53.425983 71.18660627 -53.4375 64 C-53.28144492 59.27578727 -52.18065435 56.61047251 -49 53 C-48.34 52.21625 -47.68 51.4325 -47 50.625 C-42.26917095 48.0624676 -37.26397336 48.22300393 -32 49 C-27.88744702 50.94970119 -25.16559555 53.77942791 -22 57 C-21.99635437 56.43925278 -21.99270874 55.87850555 -21.98895264 55.30076599 C-21.94701549 49.44382867 -21.87759204 43.58766682 -21.79248047 37.73120117 C-21.76432281 35.54801199 -21.74308248 33.36472185 -21.72900391 31.18139648 C-21.70750271 28.03577177 -21.66081416 24.89135426 -21.609375 21.74609375 C-21.60814636 20.7760289 -21.60691772 19.80596405 -21.60565186 18.8065033 C-21.47443102 12.68137882 -20.57249008 9.01800868 -17 4 C-11.92880188 -0.8238226 -6.64559239 -0.82433841 0 0 Z " fill="#000001" transform="translate(261,272)"/>
<path d="M0 0 C0.70266495 -0.0049649 1.4053299 -0.00992981 2.12928772 -0.01504517 C4.45957411 -0.0296782 6.78979235 -0.03647172 9.12011719 -0.04199219 C10.73956301 -0.04774404 12.35900881 -0.05350177 13.97845459 -0.05926514 C17.37805499 -0.06977928 20.77763172 -0.0756188 24.17724609 -0.07910156 C28.52622633 -0.08457797 32.87489215 -0.10858578 37.22377396 -0.13707352 C40.57129823 -0.15573287 43.9187474 -0.16090731 47.26631927 -0.16243744 C48.86904361 -0.16545859 50.47176679 -0.17346898 52.07444 -0.18662262 C54.32200212 -0.20374762 56.56880471 -0.20178721 58.81640625 -0.1953125 C60.09388733 -0.19895813 61.37136841 -0.20260376 62.68756104 -0.20635986 C67.13552458 0.26342786 70.52368608 1.62712022 73.81152344 4.69628906 C78.00063771 10.17436157 78.78851621 13.347388 78.16699219 20.16113281 C76.34164627 25.43435434 73.55980016 27.95804367 69.16699219 31.16113281 C65.67547407 32.32497219 62.90560784 32.30961657 59.22045898 32.33813477 C58.51764801 32.34470596 57.81483704 32.35127716 57.09072876 32.35804749 C54.76588836 32.37775073 52.44111246 32.38943626 50.11621094 32.39941406 C48.92350554 32.40552735 48.92350554 32.40552735 47.70670509 32.41176414 C43.49823899 32.432612 39.28980538 32.44691937 35.08129883 32.45629883 C30.74010065 32.46736192 26.39941522 32.50176391 22.05839825 32.54147053 C18.71516482 32.56764506 15.37205345 32.57599137 12.02872658 32.57958031 C10.42877552 32.58444396 8.82882983 32.59605176 7.22897911 32.6146183 C4.98614491 32.63902938 2.74463602 32.63804198 0.50170898 32.63110352 C-1.40998833 32.63990288 -1.40998833 32.63990288 -3.36030579 32.64888 C-8.61003609 31.91154602 -11.65460073 29.46693526 -15.14550781 25.59863281 C-18.28986717 21.05678041 -18.49338865 16.51755516 -17.83300781 11.16113281 C-13.76027023 3.16649979 -8.66892759 0.04645023 0 0 Z " fill="#000001" transform="translate(225.8330078125,415.8388671875)"/>
<path d="M0 0 C2.97 1.4025 5.94 2.805 9 4.25 C9.91910156 4.68344727 10.83820313 5.11689453 11.78515625 5.56347656 C16.89061103 7.97827786 21.95785957 10.45558654 27 13 C27 13.66 27 14.32 27 15 C23.31678132 16.85393604 19.63227389 18.70528192 15.9465332 20.55419922 C14.69194085 21.18401531 13.43770785 21.81454773 12.18383789 22.44580078 C10.38521644 23.35115192 8.5852075 24.25374497 6.78515625 25.15625 C5.70113525 25.70087891 4.61711426 26.24550781 3.50024414 26.80664062 C1 28 1 28 0 28 C0 18.76 0 9.52 0 0 Z " fill="#FBFBFB" transform="translate(232,106)"/>
</svg>
